<?xml version="1.0" standalone="no"?>
<!DOCTYPE svg PUBLIC "-//W3C//DTD SVG 20010904//EN"
 "http://www.w3.org/TR/2001/REC-SVG-20010904/DTD/svg10.dtd">
<svg version="1.0" xmlns="http://www.w3.org/2000/svg"
 width="1280.000000pt" height="944.000000pt" viewBox="0 0 1280.000000 944.000000"
 preserveAspectRatio="xMidYMid meet">
<metadata>
Created by potrace 1.15, written by Peter Selinger 2001-2017
</metadata>
<g transform="translate(0.000000,944.000000) scale(0.100000,-0.100000)"
fill="#000000" stroke="none">
<path d="M12317 9345 l-89 -84 -91 74 c-51 40 -94 71 -96 69 -3 -3 33 -42 79
-89 l83 -84 -39 -46 c-21 -26 -49 -61 -60 -79 -12 -17 -29 -37 -38 -45 -9 -7
-16 -18 -16 -24 0 -5 41 29 90 77 63 61 95 85 103 78 7 -5 46 -35 87 -67 41
-32 82 -63 90 -69 8 -6 -24 32 -71 84 l-87 95 74 94 c103 130 102 131 -19 16z"/>
<path d="M11844 9285 c-21 -64 -41 -121 -45 -126 -3 -6 -43 12 -96 44 -164
100 -175 100 -44 3 49 -37 94 -73 100 -80 9 -10 -5 -28 -66 -81 -144 -127
-144 -130 3 -28 51 35 94 63 98 63 3 0 13 -14 22 -31 l16 -31 -155 -152 c-86
-83 -193 -184 -238 -225 -45 -41 -89 -87 -98 -102 -9 -15 -44 -48 -77 -73 -68
-51 -149 -134 -165 -169 -6 -13 -25 -32 -42 -42 -85 -48 -204 -173 -193 -201
3 -7 -9 -17 -26 -23 -17 -6 -55 -29 -84 -51 -29 -22 -56 -40 -59 -40 -9 0 -5
41 7 63 6 12 28 45 49 73 60 79 168 322 153 345 -11 19 -47 -15 -69 -66 -13
-29 -28 -56 -34 -59 -15 -10 -23 28 -11 58 15 39 13 76 -4 76 -8 0 -36 -33
-61 -72 -98 -151 -116 -174 -169 -227 -59 -58 -58 -58 -71 19 -4 23 1 59 16
105 50 164 -27 336 -179 397 -53 21 -73 22 -257 23 -110 0 -209 -4 -219 -8
-35 -14 -2 -27 85 -33 134 -10 219 -56 219 -120 0 -41 -37 -74 -117 -104 -48
-18 -70 -21 -128 -16 -77 7 -300 -8 -383 -25 -65 -13 -105 -46 -121 -98 l-12
-40 -64 31 c-55 27 -65 36 -65 58 0 49 20 93 65 141 44 47 57 79 33 79 -18 0
-255 -248 -285 -299 -22 -36 -28 -62 -35 -149 -11 -148 -9 -145 -71 -137 -29
4 -126 7 -217 8 -135 2 -176 -1 -224 -16 -64 -20 -176 -73 -176 -84 0 -3 56
-3 125 0 130 6 433 -21 472 -41 53 -29 103 -155 88 -224 -21 -97 -66 -125
-172 -106 -49 8 -88 8 -138 1 -74 -11 -105 -5 -139 25 -29 27 -56 88 -57 129
l-1 38 -18 -50 c-38 -103 -20 -238 46 -354 39 -68 73 -100 132 -127 58 -25 70
-43 56 -83 -11 -32 -84 -71 -131 -71 -43 0 -113 35 -198 100 -84 64 -110 77
-187 95 -77 18 -265 20 -322 3 -27 -8 -63 -34 -105 -75 -36 -34 -62 -65 -59
-68 3 -3 29 9 58 27 43 27 65 33 121 36 117 7 153 -21 150 -114 -1 -43 5 -64
40 -128 58 -107 48 -137 -39 -121 -46 9 -167 123 -193 183 -17 40 -39 57 -39
30 1 -33 29 -127 48 -157 15 -26 18 -39 11 -53 -14 -26 -47 -22 -97 11 -54 35
-71 59 -81 113 -9 42 -9 41 -10 -23 -1 -56 3 -72 28 -111 16 -25 44 -55 62
-68 87 -59 127 -116 109 -150 -18 -34 -55 -35 -122 -5 -113 51 -180 44 -239
-22 -31 -36 -33 -58 -2 -31 32 28 60 30 107 9 73 -32 96 -112 60 -212 -26 -75
1 -159 52 -159 36 0 64 -18 64 -41 0 -28 -46 -67 -86 -75 -45 -8 -109 29 -162
96 -52 65 -67 122 -48 184 8 25 10 48 6 51 -13 8 -24 -14 -37 -75 -17 -81 -15
-153 6 -210 l19 -50 -89 0 c-89 0 -89 0 -89 25 0 14 7 42 15 62 18 43 19 76 3
71 -11 -4 -44 -73 -62 -132 -6 -17 -14 -18 -89 -13 -45 4 -136 16 -202 27
-161 28 -328 28 -455 0 -350 -78 -594 -96 -795 -60 -33 6 -128 31 -210 55
-257 74 -1052 285 -1171 309 -113 24 -329 39 -459 33 -296 -14 -513 -86 -882
-292 -249 -140 -385 -238 -555 -403 -94 -91 -97 -96 -154 -223 -31 -71 -64
-135 -72 -142 -13 -10 -14 -9 -5 8 40 81 51 109 46 121 -8 21 -26 17 -69 -14
-21 -15 -66 -43 -99 -61 -185 -104 -362 -245 -440 -352 l-34 -45 -128 -24
c-196 -35 -286 -72 -390 -158 -147 -123 -226 -229 -328 -437 -79 -161 -106
-253 -151 -515 -30 -176 -36 -240 -44 -455 -9 -269 -9 -265 -77 -463 -51 -147
-79 -187 -139 -198 -104 -19 -245 118 -248 243 -1 57 27 92 100 123 74 31 86
39 79 51 -12 18 -86 9 -148 -19 -115 -53 -163 -133 -179 -301 -13 -135 -5
-238 23 -321 56 -162 160 -248 315 -258 84 -5 152 19 180 65 34 54 56 74 71
62 20 -17 17 -28 -36 -140 -54 -115 -90 -156 -166 -190 -104 -46 -247 -16
-310 66 -14 19 -33 35 -41 35 -23 0 21 -73 82 -136 83 -86 167 -94 325 -33 62
24 95 44 144 90 84 79 118 135 159 260 19 57 49 136 66 174 l33 70 12 -55 c6
-30 22 -77 35 -105 l24 -50 7 85 c8 101 49 236 91 303 17 26 57 69 90 94 43
34 55 49 46 56 -8 5 -2 7 18 3 35 -6 189 32 263 65 81 36 153 118 186 215 25
72 45 207 45 302 0 112 -68 423 -121 554 -23 57 -24 91 -3 112 39 39 179 -8
275 -91 79 -69 133 -95 285 -134 126 -32 134 -36 202 -93 99 -82 56 -11 -60
100 -64 62 -105 87 -200 125 -70 27 -114 62 -149 117 -44 70 -68 143 -80 247
-9 78 -8 110 5 188 9 52 16 119 16 150 l0 56 102 53 c119 62 206 138 243 211
14 29 24 41 21 27 -3 -14 -11 -78 -17 -142 -25 -260 43 -541 183 -750 105
-156 218 -241 553 -416 216 -113 290 -154 360 -202 22 -15 85 -50 141 -78 129
-65 156 -88 196 -170 32 -64 33 -71 31 -177 -4 -269 -72 -505 -194 -670 -75
-102 -89 -136 -89 -228 0 -152 45 -204 209 -241 40 -9 162 -55 270 -102 108
-47 279 -122 381 -166 221 -96 473 -221 666 -329 210 -118 278 -201 278 -339
0 -56 -4 -72 -33 -117 -32 -50 -33 -55 -29 -132 7 -128 68 -227 202 -328 33
-25 90 -74 126 -109 81 -78 161 -121 199 -108 33 12 38 42 16 96 -25 63 -40
267 -26 358 20 133 -4 174 -157 269 -55 34 -136 97 -187 146 -75 71 -82 81
-45 58 188 -116 454 -328 649 -517 86 -83 176 -166 201 -183 55 -37 144 -83
163 -83 7 0 36 -11 64 -25 65 -33 83 -68 83 -164 0 -89 17 -132 67 -165 73
-50 163 -71 308 -71 114 1 136 4 181 24 102 45 135 112 95 193 -11 24 -51 78
-87 121 -73 86 -166 152 -324 232 -52 26 -120 64 -150 84 -85 55 -245 221
-365 381 -125 166 -249 299 -345 370 -36 27 -151 100 -255 163 -105 63 -253
155 -330 206 -145 95 -282 167 -382 202 -32 11 -116 29 -188 39 -159 24 -239
60 -338 150 -122 112 -151 227 -88 353 16 34 44 78 61 97 29 34 30 34 24 9 -9
-41 12 -132 52 -227 20 -48 52 -125 71 -172 51 -125 60 -132 185 -141 168 -12
371 -97 618 -259 75 -50 140 -90 144 -90 5 0 -7 17 -26 38 -80 88 -111 147
-167 312 -18 52 -52 145 -76 206 -60 153 -93 280 -104 406 -6 59 -19 145 -31
190 -11 46 -25 106 -31 133 -6 28 -24 97 -40 155 -51 191 -82 353 -90 475 -4
66 -11 133 -15 149 -7 29 -6 29 27 22 26 -5 57 -31 129 -104 175 -182 404
-376 518 -439 154 -86 269 -121 527 -159 94 -13 262 -42 375 -64 471 -90 563
-101 955 -110 314 -7 335 -9 435 -35 175 -45 238 -81 440 -245 97 -78 228
-145 415 -210 147 -52 223 -87 375 -173 71 -40 75 -44 78 -81 3 -37 -1 -43
-70 -110 -76 -74 -133 -107 -260 -152 -40 -14 -136 -59 -214 -100 -175 -91
-222 -104 -385 -104 -178 0 -209 14 -209 97 0 73 -46 188 -93 231 -30 29 -82
41 -121 31 -16 -5 -61 -30 -99 -56 l-69 -48 -158 -5 c-112 -4 -162 -9 -173
-19 -23 -19 -21 -73 3 -104 27 -34 131 -115 205 -160 33 -20 89 -63 125 -97
85 -81 117 -96 220 -105 90 -7 196 -39 265 -79 23 -14 63 -50 88 -80 85 -99
137 -96 248 15 111 111 579 367 784 430 126 39 169 64 235 136 76 82 114 168
118 265 6 107 -19 159 -127 264 -45 43 -108 110 -139 147 -31 38 -104 110
-162 161 -111 99 -209 196 -236 235 l-16 23 30 -16 c54 -28 104 -29 219 -7 59
11 209 28 333 36 124 8 257 22 295 31 39 9 113 17 165 18 88 1 100 -1 160 -31
82 -40 153 -110 228 -222 71 -106 102 -185 141 -356 44 -198 53 -265 57 -455
4 -163 6 -178 29 -224 30 -59 30 -68 5 -123 -17 -38 -24 -44 -75 -59 -65 -18
-90 -39 -115 -98 -58 -130 -20 -284 114 -465 35 -48 70 -100 79 -116 57 -114
114 -73 156 113 27 121 57 240 76 312 17 59 48 191 72 305 17 79 34 116 74
163 34 38 38 83 13 140 -9 20 -26 69 -39 107 -13 39 -42 117 -65 175 -80 198
-129 414 -155 679 -9 93 -38 160 -123 285 -141 210 -184 239 -380 260 -120 13
-298 49 -476 96 -97 26 -127 38 -190 78 -26 17 -62 34 -78 37 -29 7 -30 8 -23
54 3 25 33 127 66 226 33 99 73 242 90 318 16 76 36 164 44 196 21 81 19 141
-7 214 -18 49 -22 83 -22 162 1 152 26 233 149 480 117 236 196 439 225 579
36 175 69 221 233 330 168 110 241 131 355 102 165 -42 297 -124 468 -288 81
-79 133 -120 195 -154 137 -75 177 -124 203 -249 16 -76 35 -102 82 -111 48
-9 167 32 228 79 28 21 79 51 113 67 67 31 83 49 112 131 10 29 35 92 55 139
57 137 50 163 -80 296 -75 76 -101 111 -163 225 -96 176 -160 271 -270 402
-118 140 -147 180 -268 372 -56 88 -149 219 -207 292 -58 72 -106 135 -106
138 0 4 20 30 45 58 49 56 104 152 93 162 -4 4 -48 -7 -99 -24 -51 -17 -94
-29 -96 -27 -3 2 20 12 49 21 160 52 204 75 246 123 76 91 125 184 90 169 -44
-18 -45 -14 -3 7 56 27 124 94 179 175 46 68 48 83 5 61 -10 -6 -19 -8 -19 -6
0 3 19 15 41 27 23 11 55 35 71 52 45 48 139 174 142 189 1 8 20 32 43 55 47
47 153 185 153 199 0 6 15 25 34 43 l33 32 33 -80 c19 -45 35 -79 37 -77 2 2
-6 35 -18 72 -13 38 -23 84 -23 101 -1 18 -5 33 -9 33 -4 0 -11 10 -16 23 -8
20 -5 23 28 28 42 8 53 2 28 -15 -9 -7 -17 -17 -17 -21 0 -5 12 2 26 16 20 19
43 26 112 35 l87 11 -67 2 c-38 0 -68 4 -68 8 0 4 9 17 21 29 11 12 16 24 11
28 -5 3 -24 -11 -42 -30 -24 -27 -38 -34 -54 -30 -11 3 -33 6 -48 6 -25 0 -26
2 -18 33 29 114 51 219 47 223 -2 2 -21 -48 -43 -111z m-2186 -1019 c44 -23
73 -61 79 -103 4 -31 -1 -45 -27 -81 l-31 -44 -59 56 c-34 33 -87 69 -124 87
-63 30 -64 31 -48 51 9 11 31 26 47 34 40 17 129 18 163 0z m-295 -96 c86 -92
93 -150 36 -279 -24 -55 -35 -47 -78 54 -32 76 -50 171 -51 258 0 43 2 47 19
38 10 -6 43 -37 74 -71z m1387 -330 c-8 -5 -22 -9 -30 -9 -10 0 -8 3 5 9 27
12 43 12 25 0z m-9160 -3159 c0 -4 -13 -40 -29 -79 -29 -69 -83 -158 -146
-237 -18 -22 -49 -64 -69 -94 -44 -65 -47 -47 -10 71 53 169 105 253 191 315
47 34 63 40 63 24z m-152 -758 c-1 -77 -3 -73 90 -248 43 -80 55 -156 49 -290
-7 -128 -36 -251 -75 -315 -46 -75 -148 -139 -266 -166 -27 -6 -26 -4 18 36
86 80 156 263 156 409 0 32 -7 123 -16 202 -20 181 -15 287 22 448 10 46 24 0
22 -76z m3267 -253 l-14 -105 3 100 c2 55 7 109 12 120 15 35 15 -4 -1 -115z
m-85 -361 c-37 -121 -106 -285 -145 -343 -20 -31 -39 -55 -41 -53 -2 2 36 91
84 198 49 107 95 211 102 232 6 21 14 36 16 34 2 -2 -5 -33 -16 -68z"/>
<path d="M10514 9281 l-18 -50 -60 4 -61 4 55 -12 c37 -9 54 -18 53 -27 0 -8
-4 -31 -7 -50 -6 -32 -4 -31 16 14 l21 48 56 -5 c60 -6 51 6 -11 17 -42 8 -42
6 -27 59 16 57 4 56 -17 -2z"/>
<path d="M10058 9243 l-37 -37 -48 33 -48 34 42 -43 42 -43 -37 -46 -36 -46
40 38 c22 20 44 37 48 37 4 0 27 -14 50 -32 l41 -32 -40 42 c-29 31 -37 46
-30 56 6 8 20 28 33 45 31 41 25 39 -20 -6z"/>
<path d="M11016 8995 c-4 -71 -9 -142 -12 -157 l-5 -26 -37 18 c-132 67 -223
110 -218 102 3 -5 55 -42 116 -82 61 -40 109 -77 108 -82 -2 -4 -57 -44 -123
-88 -66 -44 -117 -80 -112 -80 4 0 66 29 137 65 l129 65 5 -33 c3 -17 9 -86
12 -152 8 -120 8 -120 15 -55 5 36 11 104 14 152 l7 87 130 -65 c72 -36 132
-63 134 -61 2 2 -50 40 -116 83 -66 43 -120 81 -119 84 0 3 53 41 118 85 66
44 118 81 116 83 -2 2 -61 -26 -133 -62 l-130 -65 -7 92 c-4 51 -10 121 -14
157 -7 62 -8 59 -15 -65z"/>
<path d="M10315 8975 c-20 -30 -40 -55 -43 -55 -3 0 -27 24 -54 53 l-49 52 40
-59 c22 -32 38 -62 36 -66 -3 -4 -30 -18 -60 -30 -72 -29 -65 -36 13 -11 70
21 72 20 72 -60 0 -27 5 -49 10 -49 6 0 10 28 10 65 l0 65 28 -6 c15 -3 44
-10 66 -16 68 -17 51 0 -23 22 -79 24 -78 18 -24 103 38 60 21 54 -22 -8z"/>
<path d="M8731 9008 c-1 -9 8 -60 19 -115 11 -54 20 -103 20 -109 0 -7 -43 -9
-137 -6 -76 2 -136 2 -133 -1 3 -3 63 -13 135 -22 71 -9 131 -18 132 -19 1 -1
-18 -59 -42 -129 -24 -70 -42 -127 -39 -127 2 0 29 53 59 117 31 64 57 119 59
121 3 2 49 -29 103 -70 138 -105 142 -104 25 7 l-103 97 106 75 c58 41 105 77
105 80 0 2 -25 -9 -55 -26 -30 -17 -80 -45 -111 -62 -30 -17 -58 -28 -62 -25
-4 4 -23 57 -44 119 -20 62 -36 105 -37 95z"/>
<path d="M9500 8998 c0 -4 14 -42 30 -84 17 -42 29 -78 28 -79 -2 -2 -43 -10
-93 -19 l-90 -15 93 2 94 2 -7 -50 c-3 -27 -8 -68 -10 -90 l-5 -40 11 35 c5
19 17 59 25 87 l15 53 79 -40 c44 -22 80 -38 80 -36 0 3 -31 25 -70 50 -38 25
-70 49 -70 53 0 4 26 34 58 67 l57 59 -66 -51 c-37 -29 -70 -52 -73 -52 -3 0
-24 35 -45 78 -22 42 -40 74 -41 70z"/>
<path d="M2850 8604 c11 -25 20 -49 20 -53 0 -4 -21 -17 -46 -29 -59 -29 -52
-39 10 -13 l46 20 25 -47 c27 -52 33 -45 10 11 -8 20 -15 39 -15 42 0 3 21 15
46 26 25 12 44 23 41 25 -2 3 -25 -4 -51 -15 l-46 -20 -25 49 c-32 63 -41 65
-15 4z"/>
<path d="M11691 8630 c0 -3 6 -27 14 -54 8 -26 13 -52 10 -55 -2 -4 -22 -14
-45 -21 -60 -20 -60 -32 1 -14 28 9 54 12 57 9 4 -4 15 -25 25 -48 15 -35 17
-37 13 -12 -3 17 -8 40 -12 52 -5 20 0 26 37 43 40 19 29 20 -28 4 -19 -5 -26
1 -47 47 -13 30 -25 52 -25 49z"/>
<path d="M7757 8445 c-16 -56 -32 -106 -36 -113 -6 -10 -29 -9 -109 3 -147 22
-151 18 -23 -20 62 -19 115 -36 117 -38 2 -2 -4 -58 -14 -125 -10 -67 -16
-119 -13 -117 2 3 20 56 38 117 19 62 35 114 36 115 3 2 194 -25 227 -33 16
-3 21 -2 15 4 -5 5 -56 22 -112 37 -56 16 -106 31 -111 34 -7 4 -5 41 4 101
21 137 13 150 -19 35z"/>
<path d="M3374 8419 l-42 -41 -48 27 -49 27 38 -32 c44 -38 45 -49 12 -80 -14
-13 -25 -28 -25 -34 0 -5 18 7 39 28 l40 39 45 -27 c60 -35 69 -33 18 5 -23
17 -42 34 -42 38 0 5 14 25 30 46 28 35 34 45 27 45 -1 0 -21 -19 -43 -41z"/>
<path d="M11976 8413 c-3 -16 -8 -52 -12 -81 -3 -29 -12 -56 -19 -58 -7 -3
-47 8 -89 24 -42 17 -76 28 -76 26 0 -2 36 -22 81 -44 72 -37 79 -43 68 -58
-8 -9 -30 -37 -50 -62 -59 -74 -55 -78 12 -12 36 34 67 62 71 62 3 0 25 -29
48 -65 23 -36 44 -65 46 -65 2 0 -12 32 -31 70 -20 39 -33 75 -30 79 2 5 36
17 75 26 38 9 70 19 70 22 0 5 -54 -1 -129 -14 l-33 -6 7 92 c7 87 2 121 -9
64z"/>
<path d="M8237 8318 c-20 -62 -41 -119 -46 -127 -7 -11 -24 -5 -87 31 -183
106 -183 105 -36 -6 51 -39 92 -73 92 -76 0 -4 -35 -36 -77 -72 -116 -98 -129
-119 -33 -53 47 33 96 67 109 77 14 10 27 15 31 11 4 -4 28 -59 55 -120 27
-62 50 -112 51 -110 1 1 -13 54 -32 117 -18 63 -34 120 -34 126 0 7 38 14 102
18 167 12 176 21 27 26 l-136 5 29 125 c15 69 27 128 25 133 -1 4 -19 -43 -40
-105z"/>
<path d="M12728 8348 l-37 -31 -41 26 c-55 37 -63 33 -15 -7 l40 -34 -40 -41
c-46 -48 -42 -53 10 -11 21 17 43 30 49 30 6 0 29 -12 51 -26 l40 -27 -37 39
-38 38 37 38 c45 46 33 49 -19 6z"/>
<path d="M6904 8305 l-17 -47 -53 4 c-29 2 -50 0 -47 -4 2 -5 14 -8 26 -8 43
0 68 -12 63 -29 -2 -9 -7 -32 -10 -51 -6 -33 -5 -33 13 10 18 45 19 45 77 50
l59 5 -52 9 c-29 4 -53 11 -53 14 0 4 5 24 11 45 15 56 4 57 -17 2z"/>
<path d="M5296 8184 c-16 -66 -31 -122 -33 -126 -2 -4 -58 19 -123 52 -66 33
-123 60 -127 60 -8 0 14 -15 156 -105 l74 -47 -49 -51 c-27 -29 -69 -74 -94
-101 -51 -56 -35 -45 93 61 l75 63 35 -63 c19 -34 47 -86 61 -115 15 -30 29
-52 31 -50 2 2 -16 54 -40 116 -25 62 -45 116 -45 121 0 5 44 17 98 26 165 29
174 34 57 29 -60 -3 -122 -7 -137 -9 -33 -5 -32 -11 -12 122 22 149 14 155
-20 17z"/>
<path d="M6448 8263 l-36 -36 -42 33 c-22 18 -43 30 -45 28 -3 -3 13 -19 35
-37 l41 -32 -37 -52 -37 -52 45 43 45 43 29 -23 c57 -46 68 -50 27 -9 -24 23
-43 45 -43 49 0 4 14 24 31 45 39 47 34 47 -13 0z"/>
<path d="M3101 8235 c-1 -27 -4 -66 -7 -86 l-6 -36 -81 23 c-44 13 -82 22 -84
20 -2 -2 32 -18 77 -36 l80 -32 -22 -37 c-12 -20 -32 -49 -43 -66 -58 -79 -33
-61 50 39 l41 48 54 -71 c30 -39 55 -71 57 -71 5 0 -15 37 -54 98 -19 30 -33
56 -30 58 2 2 40 18 83 34 43 16 72 29 64 29 -14 1 -87 -17 -137 -33 -21 -7
-23 -4 -24 36 0 24 -4 63 -8 88 l-8 45 -2 -50z"/>
<path d="M4199 8176 c-41 -47 -78 -85 -83 -85 -5 -1 -52 26 -104 59 -52 34
-96 60 -97 58 -2 -2 37 -38 86 -81 l89 -78 -58 -87 c-84 -125 -83 -127 10 -28
l84 89 89 -60 c143 -95 142 -91 -4 38 l-64 57 30 43 c48 71 103 159 99 159 -2
0 -37 -38 -77 -84z"/>
<path d="M7405 8010 c-4 -66 -10 -132 -14 -146 l-6 -25 -135 66 c-146 71 -145
66 9 -38 56 -38 99 -72 96 -77 -3 -5 -54 -41 -113 -81 -59 -39 -111 -76 -117
-81 -5 -5 51 20 125 56 l135 66 7 -25 c3 -14 9 -79 13 -145 4 -67 9 -119 12
-117 2 2 8 66 13 142 6 76 12 140 14 142 2 2 63 -25 135 -61 72 -37 131 -64
131 -62 0 3 -54 42 -120 86 -66 45 -120 84 -120 86 0 2 54 40 120 84 66 44
120 83 120 85 0 3 -59 -24 -131 -61 -72 -36 -133 -63 -135 -61 -2 2 -8 66 -14
142 -5 76 -11 140 -13 142 -3 2 -8 -50 -12 -117z"/>
<path d="M11515 8088 c-44 -132 -76 -222 -82 -233 -6 -10 -34 2 -116 52 -60
35 -110 63 -112 61 -2 -2 41 -37 96 -78 54 -41 99 -77 99 -81 0 -3 -37 -39
-82 -79 -107 -95 -118 -105 -98 -95 8 5 56 37 107 72 50 34 96 63 100 63 5 0
33 -56 62 -125 30 -69 55 -124 57 -122 2 1 -15 60 -37 131 -22 70 -38 130 -35
133 2 3 62 10 133 17 l128 12 -70 7 c-38 4 -98 7 -132 7 -44 0 -63 4 -63 13 1
6 14 67 29 135 15 67 26 122 24 122 -2 0 -6 -6 -8 -12z"/>
<path d="M6720 8078 c0 -4 14 -42 30 -84 17 -42 29 -78 28 -79 -2 -1 -43 -9
-93 -18 l-90 -16 94 3 93 4 -5 -37 c-10 -66 -17 -136 -13 -126 3 6 14 43 26
82 l21 73 79 -40 c44 -22 80 -38 80 -35 0 3 -31 25 -70 50 -38 25 -70 48 -70
52 0 4 28 36 63 72 l62 64 -63 -48 c-35 -27 -65 -53 -68 -57 -12 -19 -26 -3
-63 70 -22 42 -40 74 -41 70z"/>
<path d="M3690 7920 c-39 -71 -74 -130 -78 -129 -4 0 -47 51 -97 114 -49 62
-91 112 -93 111 -1 -2 32 -58 73 -127 41 -68 75 -126 75 -129 0 -3 -55 -14
-122 -24 -180 -27 -185 -37 -16 -30 l148 6 -26 -68 c-14 -38 -39 -102 -54
-143 -37 -95 -27 -83 50 57 34 62 66 115 71 117 4 3 48 -44 96 -104 48 -60 89
-108 91 -107 2 2 -29 56 -68 120 -38 64 -70 121 -70 125 0 5 53 16 118 26 187
27 194 35 25 29 -84 -3 -153 -3 -153 0 0 3 24 68 54 145 30 78 53 141 51 141
-2 0 -36 -58 -75 -130z"/>
<path d="M6530 7975 c11 -26 20 -53 20 -61 0 -7 -21 -25 -47 -39 -48 -26 -22
-24 29 1 15 8 29 14 31 14 2 0 14 -22 27 -50 30 -63 37 -58 11 7 l-20 51 40
18 c58 26 59 38 1 15 l-49 -20 -24 50 c-30 64 -45 75 -19 14z"/>
<path d="M4380 7854 c37 -69 58 -119 52 -123 -6 -3 -64 -21 -131 -40 -66 -19
-119 -36 -117 -38 2 -2 54 5 116 17 169 30 153 42 149 -109 -2 -71 -2 -128 -1
-126 2 2 12 58 22 125 10 67 20 124 23 126 2 2 60 -16 128 -40 68 -25 124 -44
126 -43 1 2 -52 30 -117 62 -66 33 -120 62 -120 64 0 3 34 49 75 103 41 54 75
100 75 102 0 3 -39 -35 -87 -84 -47 -50 -90 -90 -94 -90 -4 0 -40 47 -80 105
-40 58 -74 105 -76 105 -3 0 23 -52 57 -116z"/>
<path d="M6011 7900 c-1 -30 -4 -72 -7 -93 -6 -32 -10 -37 -26 -31 -76 24
-150 42 -142 35 5 -4 42 -21 82 -36 39 -16 72 -30 72 -33 0 -2 -19 -32 -43
-66 -75 -107 -67 -106 26 4 l37 45 28 -30 c15 -17 42 -48 61 -70 33 -40 30
-32 -28 61 -17 28 -31 54 -31 57 0 3 36 17 81 32 44 15 78 29 76 32 -3 2 -40
-5 -83 -16 -43 -11 -79 -19 -80 -18 -1 1 -6 43 -11 92 -9 79 -10 83 -12 35z"/>
<path d="M5324 7590 c-43 -49 -83 -90 -89 -90 -5 0 -55 30 -110 66 -96 63 -98
64 -55 22 25 -24 67 -62 94 -85 l48 -42 -53 -83 c-84 -132 -85 -136 -28 -73
30 33 68 75 85 95 l32 34 103 -67 104 -68 -50 48 c-27 27 -69 64 -92 84 l-42
35 53 80 c112 168 112 172 0 44z"/>
<path d="M2090 7610 c11 -28 20 -52 20 -54 0 -1 -22 -13 -50 -26 -64 -30 -58
-37 9 -11 l51 21 24 -48 c28 -53 34 -52 11 1 -8 20 -15 41 -15 46 0 6 21 22
48 35 53 28 50 34 -5 11 -51 -22 -58 -19 -78 25 -27 60 -39 60 -15 0z"/>
<path d="M8087 7635 c3 -16 10 -40 14 -53 14 -36 12 -38 -37 -57 -57 -22 -52
-29 9 -11 l46 14 22 -55 c25 -63 36 -66 14 -3 -22 62 -20 66 35 86 27 10 48
20 45 22 -2 2 -25 -3 -51 -12 -47 -16 -64 -14 -64 7 0 7 -9 30 -20 52 -17 35
-18 36 -13 10z"/>
<path d="M6994 7456 c-16 -59 -32 -112 -35 -117 -3 -6 -48 -3 -113 6 -59 9
-112 14 -119 11 -7 -2 -5 -5 4 -5 15 -1 210 -58 215 -64 2 -1 -5 -55 -15 -119
-9 -65 -15 -115 -12 -112 3 3 20 52 38 111 17 58 34 107 35 109 4 3 176 -20
228 -31 58 -12 -10 14 -105 40 -55 16 -103 31 -108 35 -4 3 0 55 8 114 9 59
15 112 13 118 -2 6 -17 -37 -34 -96z"/>
<path d="M2614 7429 l-42 -41 -44 26 c-61 35 -71 33 -20 -5 23 -17 42 -33 42
-36 0 -4 -11 -21 -25 -39 -37 -49 -30 -53 14 -10 l40 39 45 -27 c57 -33 60
-26 6 13 l-40 29 23 29 c62 77 62 83 1 22z"/>
<path d="M6145 7320 l-17 -52 -53 4 c-63 4 -64 -7 -1 -16 l44 -7 -13 -55 c-14
-62 -8 -63 15 -1 15 42 16 42 75 47 l60 5 -52 9 c-57 8 -58 11 -42 69 16 58 3
56 -16 -3z"/>
<path d="M1134 7218 l-71 -129 -88 108 c-49 59 -93 113 -98 118 -12 11 24 -52
95 -170 l48 -80 -27 -7 c-16 -4 -82 -16 -148 -27 l-120 -19 148 -1 c81 0 147
-5 147 -9 0 -5 -22 -66 -50 -136 -27 -70 -50 -130 -50 -134 0 -4 28 43 61 103
100 179 80 170 157 74 74 -92 128 -152 116 -129 -5 8 -39 64 -76 125 -36 60
-65 111 -63 113 2 2 65 14 142 27 l138 23 -142 1 c-79 0 -143 4 -143 8 0 4 23
65 50 136 28 71 50 131 48 132 -2 2 -35 -55 -74 -127z"/>
<path d="M4156 7298 c-3 -18 -7 -44 -8 -57 -3 -24 -6 -25 -63 -24 l-60 1 58
-11 57 -10 1 -56 c1 -31 4 -42 6 -26 9 75 9 75 71 76 l57 2 -58 10 -58 10 7
59 c7 61 -1 81 -10 26z"/>
<path d="M2338 7221 c-4 -46 -10 -86 -13 -89 -3 -3 -40 4 -82 16 -42 12 -79
20 -80 18 -2 -2 32 -18 77 -36 51 -21 77 -36 73 -44 -3 -6 -23 -36 -43 -66
-52 -79 -57 -91 -19 -45 19 22 47 55 64 73 l30 33 54 -70 c29 -39 55 -71 58
-71 2 0 2 3 0 8 -3 4 -24 38 -47 76 -47 78 -49 74 50 107 98 32 94 40 -8 14
l-91 -23 -5 52 c-4 28 -7 69 -9 91 -1 25 -5 8 -9 -44z"/>
<path d="M1770 7276 c0 -5 27 -60 60 -123 71 -131 81 -112 -88 -159 -57 -15
-99 -30 -94 -32 6 -2 59 6 119 17 59 12 114 21 122 21 11 0 12 -25 6 -137 -4
-76 -5 -135 -1 -132 3 3 13 59 22 125 9 65 17 124 19 130 2 8 46 -3 126 -32
68 -24 124 -42 126 -41 1 2 -51 30 -117 62 l-119 59 32 40 c18 23 57 73 87
111 l53 70 -100 -99 -101 -99 -76 114 c-42 63 -76 110 -76 105z"/>
<path d="M3456 7173 c-4 -51 -11 -93 -14 -93 -3 0 -39 9 -80 21 -77 21 -112
20 -46 -1 21 -7 57 -21 81 -32 l43 -19 -51 -77 -51 -77 56 60 c30 33 55 63 56
68 1 19 20 1 69 -63 30 -38 55 -70 58 -70 2 0 2 3 0 8 -3 4 -23 38 -47 76 -23
38 -38 72 -33 76 4 4 36 18 71 30 34 13 61 25 58 27 -2 2 -31 -3 -64 -11 -95
-25 -91 -29 -94 77 l-3 92 -9 -92z"/>
<path d="M5706 7134 c-37 -68 -71 -124 -74 -123 -4 0 -43 45 -87 100 -44 55
-86 106 -93 112 -8 6 20 -46 62 -115 42 -69 76 -128 76 -130 0 -3 -57 -13
-127 -23 -186 -27 -191 -36 -16 -30 l153 5 -11 -27 c-49 -125 -98 -257 -96
-259 1 -1 34 56 72 127 39 71 73 129 76 129 4 0 47 -49 95 -110 49 -60 90
-108 91 -106 2 2 -28 55 -67 118 -38 63 -70 119 -70 125 0 5 53 18 118 27 186
29 193 36 25 30 -84 -3 -153 -4 -153 -1 0 3 23 65 50 137 28 73 49 134 48 136
-2 1 -34 -53 -72 -122z"/>
<path d="M6641 7000 c-6 -79 -13 -146 -15 -148 -2 -2 -59 24 -126 58 -67 34
-124 59 -126 57 -3 -2 45 -37 106 -77 61 -40 113 -77 116 -81 2 -5 -49 -44
-116 -89 -66 -44 -120 -83 -120 -85 0 -3 59 24 131 61 72 36 133 64 135 62 2
-2 9 -69 15 -148 7 -80 14 -140 16 -135 1 6 7 70 12 143 5 73 11 135 14 138 3
3 64 -24 136 -60 72 -37 131 -64 131 -61 0 2 -54 41 -120 85 -66 44 -120 82
-120 85 0 3 54 41 120 85 66 44 120 83 120 85 0 3 -59 -24 -131 -61 -72 -36
-133 -63 -136 -61 -2 3 -9 65 -14 138 -5 74 -11 138 -13 144 -1 5 -8 -55 -15
-135z"/>
<path d="M7321 6659 c-1 -4 6 -26 14 -49 8 -23 15 -46 15 -50 0 -5 -23 -16
-51 -25 -28 -9 -48 -19 -45 -22 3 -3 26 2 52 11 26 9 48 16 49 16 1 0 10 -21
20 -47 24 -65 37 -77 19 -18 -7 27 -14 54 -14 61 0 6 23 20 51 30 62 23 51 30
-14 10 l-48 -14 -24 51 c-13 29 -24 49 -24 46z"/>
<path d="M930 2309 c0 -38 44 -122 89 -169 22 -24 44 -41 47 -37 4 3 -26 57
-65 119 -51 81 -71 105 -71 87z"/>
</g>
</svg>
